<svg xmlns="http://www.w3.org/2000/svg" fill="#ffffff" viewBox="0 0 24 24" width="28" height="28">
  <path d="M12 0C5.37 0 0 5.373 0 12a12 12 0 0 0 8.21 11.387c.6.112.82-.258.82-.577v-2.173c-3.338.727-4.033-1.415-4.033-1.415-.546-1.387-1.333-1.756-1.333-1.756-1.09-.745.082-.73.082-.73 1.204.084 1.837 1.235 1.837 1.235 1.07 1.832 2.807 1.303 3.492.996.107-.776.42-1.303.762-1.602-2.666-.305-5.467-1.334-5.467-5.932 0-1.31.468-2.382 1.235-3.222-.124-.305-.535-1.527.117-3.176 0 0 1.008-.322 3.3 1.23a11.5 11.5 0 0 1 3.003-.404 11.5 11.5 0 0 1 3.003.404c2.29-1.552 3.297-1.23 3.297-1.23.653 1.649.242 2.871.118 3.176.77.84 1.233 1.912 1.233 3.222 0 4.61-2.804 5.624-5.476 5.92.43.37.823 1.102.823 2.222v3.293c0 .321.218.694.825.576A12.002 12.002 0 0 0 24 12c0-6.627-5.373-12-12-12z"></path>
</svg>
