<svg xmlns="http://www.w3.org/2000/svg" fill="#F7DF1E" width="24" height="24" viewBox="0 0 24 24"><path d="M1.5 0h21l-1.91 21.627L12.032 24l-8.46-2.373L1.5 0zm12.328 17.376c0-1.242-.467-2.222-1.682-2.222-1.162 0-1.753.755-1.753 1.566 0 .868.446 1.353 1.624 1.86l.518.217c.665.281.898.486.898.943 0 .504-.446.77-1.102.77-.664 0-1.086-.13-1.637-.428l-.274 1.594c.498.221 1.409.443 2.303.443 2.156 0 2.815-1.253 2.815-2.401zm5.377.102c0-1.29-.49-2.298-1.794-2.298-1.02 0-1.622.584-1.873 1.152l.002.001c-.27.59-.42 1.028-.42 1.914 0 1.12.63 1.827 1.762 1.827.965 0 1.557-.495 1.837-1.038l-.002-.001c.283-.548.49-1.186.49-1.557z"></path></svg>
