<svg xmlns="http://www.w3.org/2000/svg" fill="#f89820" width="24" height="24" viewBox="0 0 24 24"><path d="M11.953 0s-4.02 2.458-3.904 3.838c.116 1.379 2.396 2.054 2.396 2.054s-2.522-.219-2.63 1.167c-.108 1.385 2.383 2.164 2.383 2.164s-3.643-.138-3.693 1.434c-.05 1.573 3.968 2.236 3.968 2.236s-5.138.082-5.206 1.913c-.068 1.831 5.242 2.188 5.242 2.188h6.463c0 .001 2.271-.07 2.351-1.808.08-1.739-3.178-1.93-3.178-1.93s3.324-.518 3.393-2.151c.069-1.633-3.306-1.895-3.306-1.895s2.61-.692 2.663-2.206c.054-1.514-2.667-1.842-2.667-1.842s1.801-.653 1.844-1.898C18.216 1.573 11.953 0 11.953 0z"></path></svg>
