<svg xmlns="http://www.w3.org/2000/svg" fill="#47A248" width="24" height="24" viewBox="0 0 24 24"><path d="M11.572.216s.494 7.626-4.187 11.447c-1.73 1.416-3.458 3.308-3.1 5.146.354 1.838 2.335 3.212 4.19 3.735.328.093.707.145 1.093.176v3.28c0 .003.015.008.022.012.007.004.013.01.021.014.014.008.027.012.042.02.016.01.03.014.047.022.017.008.034.014.052.02.018.008.035.012.053.017.02.004.038.01.058.012.022.002.042.007.064.01.02.002.04.006.062.006.021 0 .042.004.063.004h.021l.021-.002c.02 0 .04-.004.061-.004.021 0 .041-.004.062-.006.022-.003.042-.008.064-.01.02-.003.038-.008.058-.012.018-.005.035-.01.053-.017.018-.007.035-.013.053-.02.017-.007.03-.013.046-.022.015-.008.028-.012.042-.02.007-.004.013-.01.02-.014.007-.004.022-.01.022-.012v-3.281c.386-.03.766-.083 1.095-.176 1.855-.523 3.837-1.897 4.19-3.735.359-1.838-1.37-3.73-3.1-5.146C12.078 7.842 11.572.216 11.572.216z"></path></svg>
